
        <svg xmlns="http://www.w3.org/2000/svg" xmlns:xlink="http://www.w3.org/1999/xlink" version="1.1" width="3166.6666666666665" height="1450.0000000000002" viewBox="0 0 3166.6666666666665 1450.0000000000002">
			
			<g transform="scale(8.333333333333334) translate(10, 10)">
				<defs id="SvgjsDefs1006"/><g id="SvgjsG1007" featureKey="symbolGroupContainer" transform="matrix(1,0,0,1,0,0)" fill="#000"><rect xmlns="http://www.w3.org/2000/svg" width="140" height="154" rx="10" ry="10"/></g><g id="SvgjsG1008" featureKey="monogramFeature-0" transform="matrix(2.5712947845458984,0,0,2.5712947845458984,7.5315607553060975,-18.569422970177882)" fill="#ffffff"><path d="M41.64 15 q0.84 0 1.47 0.63 t0.63 1.47 l0 40.2 q0 0.84 -0.63 1.47 t-1.47 0.63 l-5.28 0 q-1.08 0 -1.74 -0.84 l-29.34 -40.2 q-0.36 -0.48 -0.42 -1.08 t0.21 -1.14 t0.78 -0.84 t1.11 -0.3 l5.28 0 q0.48 0 0.96 0.21 t0.72 0.63 l21.06 28.62 l0 -27.36 q0 -0.84 0.6 -1.47 t1.5 -0.63 l4.56 0 z M11.52 44.1 q0.84 0 1.47 0.6 t0.63 1.5 l0 11.1 q0 0.84 -0.63 1.47 t-1.47 0.63 l-4.56 0 q-0.84 0 -1.47 -0.63 t-0.63 -1.47 l0 -11.1 q0 -0.9 0.63 -1.5 t1.47 -0.6 l4.56 0 z"/></g><g id="SvgjsG1009" featureKey="nameFeature-0" transform="matrix(1.5797995328903198,0,0,1.5797995328903198,156.84039721461986,-3.41883754709224)" fill="#000"><path d="M19.04 10.920000000000002 c0.12 0.56 0.04 27.2 0.04 27.88 c0 1.2 -0.44 1.16 -1.24 1.16 c-1.2 0 -2.88 0.2 -3.24 -0.2 c-0.32 -0.28 -6.24 -14.56 -7.08 -16.36 c-0.08 -0.16 -0.28 -0.56 -0.44 -0.48 c-0.2 0.08 -0.12 0.36 -0.12 0.52 c-0.04 1.4 0.2 13.48 0.2 15.4 c0 0.96 -0.04 1.12 -0.84 1.12 l-2 0 c-0.52 0 -1.16 -0.04 -1.68 0.04 c-0.4 0 -0.6 -0.12 -0.64 -0.52 l0 -3.16 c0.08 -3.36 0 -23.28 0 -24.76 c0 -1.28 0.36 -1.52 1.64 -1.52 c0.88 -0.04 1.76 -0.04 2.64 -0.04 c0.28 0 0.44 0.04 0.6 0.4 c1.08 2.52 5.68 14.08 6.4 15.48 c0.12 0.28 0.56 1.4 0.8 1.52 l0.04 0 c0.16 -0.16 0.12 -0.96 0.12 -1.2 c0 -0.6 -0.32 -14.64 -0.32 -14.92 c0 -0.4 -0.12 -0.76 0.08 -1.04 c0.12 -0.16 0.64 -0.2 0.84 -0.24 c1.12 -0.08 2.44 0.04 3.56 0 c0.56 0 0.52 0.4 0.64 0.92 z M47.91 17.36 c0.84 2.48 1.04 5.16 1.04 7.8 c0 2.2 -0.4 4.32 -0.96 6.44 c-0.72 2.52 -1.92 4.8 -4.08 6.28 c-1.6 1.16 -3.28 1.92 -5.24 2.12 c-0.28 0 -0.52 0.04 -0.8 0.04 c-0.24 0 -0.48 -0.04 -0.76 -0.04 c-1.96 -0.2 -3.64 -0.96 -5.28 -2.12 c-2.12 -1.48 -3.36 -3.76 -4.04 -6.28 c-0.6 -2.12 -0.96 -4.24 -0.96 -6.44 c0 -2.64 0.2 -5.32 1.04 -7.8 c1.48 -4.28 5.56 -7.32 10 -7.4 c4.44 0.08 8.52 3.12 10.04 7.4 z M44.03 28.08 c0.4 -2.44 0.24 -4.92 -0.24 -7.36 c-0.48 -2.2 -1.44 -4.36 -3.28 -5.68 c-0.32 -0.24 -0.68 -0.44 -1.04 -0.56 c-0.52 -0.24 -1.08 -0.32 -1.6 -0.32 s-1.04 0.08 -1.56 0.32 c-0.4 0.12 -0.72 0.32 -1.04 0.56 c-1.88 1.32 -2.84 3.48 -3.28 5.68 c-0.48 2.44 -0.64 4.92 -0.24 7.36 c0.4 2.2 1.2 5.16 3.28 6.28 c0.88 0.48 1.84 0.8 2.84 0.84 c1 -0.04 2 -0.36 2.88 -0.84 c2.08 -1.12 2.88 -4.08 3.28 -6.28 z M56.7 31.8 l-0.04 0 c0 1 -0.04 2.04 0 3.08 c0.04 1.28 0.12 2.56 0.2 3.84 c0 0.44 0.12 0.56 0.52 0.64 c0.84 0.2 1.64 0.24 2.48 0.24 c2.16 -0.08 4.32 0.08 6.48 0 c0.88 -0.04 1.28 0.04 2.16 -0.12 c0.8 -0.16 1.08 -0.6 1.08 -1.8 c-0.08 -0.76 -0.04 -1.08 -0.04 -2 c0 -1.32 -0.92 -1.76 -1.72 -1.72 c-0.56 0.04 -3.24 -0.04 -4.32 -0.04 c-1.8 0.04 -1.52 0.28 -1.52 -1.6 c0 -1.52 0.04 -3.48 0.04 -5.04 c0 -0.84 0.08 -1.12 0.88 -1.12 l5 0 c0.8 0.12 1.36 -0.44 1.36 -1.28 s0.08 -0.88 0.08 -1.72 l-0.12 -1.2 c-0.08 -0.68 -0.32 -0.92 -1 -0.92 c-0.44 0 -0.88 0.04 -1.32 0.08 c-1.72 0.12 -2.52 -0.12 -4.2 0 c-0.56 0 -0.64 -0.08 -0.68 -0.6 c-0.16 -1.56 0 -3.28 0.16 -4.84 c0.04 -0.64 0.2 -0.76 0.8 -0.8 l5.64 -0.04 c0.76 -0.08 1 -0.04 0.96 -0.8 c-0.08 -1.16 0.04 -2.36 -0.08 -3.52 c-0.08 -0.64 -0.28 -0.76 -1 -0.76 c-1.2 0.04 -1.48 0.04 -2.68 0.12 c-1.2 0.04 -6 0.04 -7.16 0.04 c-1.68 0 -1.8 -0.12 -1.84 1.92 c-0.08 1.6 -0.04 3.24 -0.04 4.88 c0 2.8 -0.16 12.84 -0.08 15.08 z M77.29 13.920000000000002 c-0.04 2.48 0.2 20.6 0.16 21.92 c0 1.24 0 2.48 0.04 3.72 c0 0.2 0.12 0.4 0.32 0.4 c2.8 0.12 5.56 -0.12 8.36 -0.08 c0.92 0.04 1.84 0 2.72 0 c0.88 -0.04 0.96 -0.4 0.92 -1.12 c-0.04 -1.12 -0.04 -2.12 -0.04 -3.2 c-0.04 -0.56 -0.36 -0.76 -0.84 -0.76 c-1.64 0.04 -3.28 -0.04 -4.92 0.04 c-0.28 0.04 -0.56 0.04 -0.84 0.04 c-0.48 -0.04 -0.6 -0.16 -0.64 -0.68 l0 -0.6 c-0.12 -3.32 0.12 -6.76 0.12 -10.08 c-0.04 -2.8 0 -5.32 -0.04 -7.8 c0 -1.08 0 -2.16 -0.04 -3.2 c-0.04 -0.64 0 -1.32 -0.16 -1.96 c-0.08 -0.24 -0.2 -0.56 -0.48 -0.56 l-3.76 0 c-0.64 0 -0.84 0.44 -0.88 1.08 l0 2.84 z M103.04 29.68 c-0.12 -4.56 -0.08 -9.4 -0.04 -13.92 c0 -1.4 -0.08 -2.92 -0.08 -4.32 c0 -1.52 -0.6 -1.44 -1.4 -1.48 c-1.16 -0.04 -1.68 -0.04 -2.84 -0.04 c-0.76 -0.04 -1.08 0.16 -1.08 0.92 c0 3.92 -0.12 15 -0.08 16.6 s0.2 8.88 0.12 10.48 c-0.04 0.56 0 1.12 0.04 1.68 c0.04 0.2 0.16 0.4 0.48 0.4 c1.32 -0.08 2.56 -0.08 3.88 -0.12 c0.48 -0.04 0.88 -0.16 1.08 -0.68 c0.04 -0.28 -0.08 -7.6 -0.08 -9.52 z M114.51000000000002 39.68 c0.12 0.04 0.48 0.04 0.84 0.04 c0.8 0 1.04 -2.88 1.12 -3.48 c0.04 -0.48 0.16 -0.52 0.56 -0.6 c2 -0.24 3 -0.08 5 -0.04 c0.44 0 0.68 0.2 0.8 0.56 l0.28 0.92 c0.24 0.68 0.44 1.52 0.68 2.2 c0.16 0.48 0.2 0.44 0.68 0.44 c0.64 0 2.96 0 3.64 -0.04 c0.92 0 0.28 -1.88 0.16 -2.2 c-0.36 -1.12 -0.44 -2.28 -0.8 -3.4 c-0.16 -0.48 -4.72 -22.12 -4.92 -23.32 c-0.28 -0.72 -0.04 -0.76 -0.68 -0.76 c-1.36 0 -2.8 0.08 -4.2 0 c-0.56 0 -0.52 0.16 -0.6 0.76 c-0.08 0.56 -1.52 6.92 -2.08 9.56 c-0.72 3.32 -1.36 6.52 -2.16 9.8 c-0.28 1.16 -2.2 9.52 -1.96 9.56 c0.12 0.08 0.32 0.04 0.48 0.04 c1 0 1.92 0 3.16 -0.04 z M119.75000000000001 30.6 l-0.84 0 c-1.12 0 -1.16 0 -0.88 -1.16 c0.2 -0.88 1.28 -5.64 1.52 -6.8 c0.04 -0.08 0.12 -0.16 0.16 -0.16 c0.08 0 0.16 0.08 0.2 0.12 c0.16 0.48 0.32 1.68 0.48 2.16 c0.36 1.52 0.6 2.8 0.96 4.44 c0.36 1.44 0.2 1.44 -0.52 1.44 c-0.36 0 -0.72 -0.04 -1.08 -0.04 z"/></g><g id="SvgjsG1010" featureKey="sloganFeature-0" transform="matrix(3.685969352722168,0,0,3.685969352722168,160.8114259317537,42.911491209283824)" fill="#000"><path d="M20.14 22.9 c-1.38 0.34 -2.26 -0.5 -1.96 -1.92 c0.22 -1.08 0.68 -2.08 1.2 -3.02 c0.8 -1.5 1.64 -2.96 2.46 -4.46 c0.22 -0.4 0.42 -0.82 0.46 -1.3 c0.08 -0.9 -0.14 -1.1 -1 -0.86 c-0.94 0.24 -1.8 0.68 -2.62 1.18 c-2.42 1.5 -4.5 3.42 -6.46 5.46 c-0.34 0.34 -0.74 1.08 -1.1 0.82 c-0.42 -0.32 0.18 -0.9 0.38 -1.34 c0.54 -1.22 1.12 -2.42 1.68 -3.62 c0.12 -0.24 0.26 -0.48 0.28 -0.74 c0.02 -0.36 0.48 -0.8 0.02 -1.1 c-0.32 -0.2 -0.66 0.14 -0.96 0.32 c-1.44 0.86 -2.7 1.96 -3.92 3.1 c-1.94 1.82 -3.7 3.84 -5.38 5.9 c-0.18 0.24 -0.54 0.64 -0.76 0.86 c-0.26 0.26 -0.44 0.78 -0.84 0.52 c-0.36 -0.22 0.14 -0.84 0.32 -1.24 c1.14 -2.5 2.3 -5 3.42 -7.5 c0.26 -0.58 0.48 -1.16 0.68 -1.76 c0.08 -0.28 0.18 -0.62 -0.08 -0.86 c-0.24 -0.22 -0.58 -0.12 -0.84 0 c-0.44 0.2 -0.9 0.44 -1.3 0.7 c-1.18 0.74 -2.08 1.78 -2.86 2.9 c-1.06 1.52 -1.2 3.04 0 4.56 c0.1 0.12 0.34 0.28 0.2 0.4 c-0.22 0.18 -0.32 -0.1 -0.44 -0.24 c-0.92 -1.14 -1.24 -2.42 -0.62 -3.8 c1 -2.18 2.6 -3.84 4.82 -4.82 c1.46 -0.66 1.64 0.08 1.5 1.14 c-0.12 0.9 -0.54 1.7 -0.9 2.52 c-0.86 1.9 -1.76 3.78 -2.62 5.68 c-0.16 0.36 -0.4 0.66 -0.42 1.06 c0.7 -0.38 1.08 -1.1 1.6 -1.68 c2.16 -2.54 4.42 -4.98 7.08 -7 c0.56 -0.42 1.12 -0.84 1.76 -1.12 c0.78 -0.32 1.16 -0.08 1.1 0.78 c-0.06 0.98 -0.56 1.82 -0.92 2.7 c-0.34 0.78 -0.84 1.5 -1.06 2.34 c-0.02 0.04 0 0.12 0.06 0.06 c1.68 -1.56 3.28 -3.22 5.18 -4.5 c1.14 -0.76 2.24 -1.56 3.58 -1.96 c0.26 -0.08 0.5 -0.14 0.76 -0.16 c0.96 -0.02 1.36 0.46 1.14 1.36 c-0.22 0.88 -0.64 1.68 -1.08 2.46 c-0.78 1.38 -1.56 2.78 -2.34 4.18 c-0.4 0.76 -0.72 1.56 -0.8 2.42 c-0.1 1.04 0.56 1.58 1.54 1.28 c0.88 -0.26 1.6 -0.82 2.24 -1.44 c1.1 -1.02 2.08 -2.16 3 -3.34 c0.1 -0.12 0.24 -0.34 0.38 -0.26 c0.26 0.2 -0.02 0.34 -0.14 0.48 c-1.2 1.36 -2.28 2.86 -3.76 3.96 c-0.5 0.38 -1.02 0.74 -1.66 0.9 z M36.1 26.96 c-1.4 0.16 -2.8 -0.84 -3.46 -2.38 c-0.54 -1.26 -0.72 -2.6 -0.82 -3.96 c-0.02 -0.16 0.02 -0.42 -0.08 -0.46 c-0.16 -0.06 -0.3 0.12 -0.44 0.32 c-0.9 1.26 -1.86 2.5 -2.62 3.86 c-0.36 0.64 -0.8 1.24 -0.74 2.02 c0.02 0.12 -0.02 0.3 -0.2 0.28 c-0.16 -0.02 -0.1 -0.2 -0.12 -0.32 c-0.08 -0.6 0.18 -1.1 0.46 -1.6 c0.86 -1.52 1.86 -2.98 2.96 -4.36 c0.54 -0.7 0.88 -1.44 0.98 -2.34 c0.22 -2.1 0.52 -4.2 0.74 -6.32 c0.1 -0.92 0.1 -1.86 -0.14 -2.78 c-0.28 -1.06 -0.9 -1.38 -1.94 -0.96 c-1.24 0.52 -2.18 1.38 -2.98 2.42 c-1.3 1.7 -2.34 3.54 -2.58 5.72 c-0.1 1.04 -0.12 2.06 0.8 2.82 c0.06 0.04 0.18 0.12 0.08 0.22 c-0.08 0.08 -0.22 0.06 -0.28 0.02 c-0.58 -0.36 -0.8 -0.94 -0.9 -1.58 c-0.24 -1.72 0.22 -3.3 0.96 -4.8 c1 -2.04 2.24 -3.86 4.28 -4.98 c1.78 -0.98 2.98 -0.34 3.1 1.7 c0.02 0.52 0 1.06 0 1.6 c0.02 2.16 -0.42 4.28 -0.68 6.42 c-0.08 0.66 0 0.94 0.48 0.26 c1.34 -1.8 2.76 -3.5 4.16 -5.22 c1.12 -1.36 2.34 -2.64 3.38 -4.06 c0.08 -0.1 0.2 -0.26 0.32 -0.18 c0.22 0.16 0.02 0.3 -0.08 0.42 c-1.64 1.98 -3.32 3.96 -4.96 5.98 c-1.06 1.28 -2.06 2.6 -3.1 3.9 c-0.18 0.24 -0.32 0.48 -0.34 0.82 c-0.04 1.58 0 3.16 0.58 4.7 c0.82 2.12 2.4 2.84 4.64 2.08 c0.86 -0.28 1.6 -0.78 2.24 -1.44 c1.14 -1.2 2.34 -2.34 3.06 -3.88 c0.04 -0.12 0.1 -0.28 0.24 -0.26 s0.08 0.28 0.04 0.38 c-0.36 1.12 -2.62 3.66 -4.02 4.78 c-0.88 0.68 -1.92 1.04 -3.02 1.16 z"/></g>
			</g>
		</svg>
	